<svg width="37" height="37" viewBox="0 0 37 37" fill="none" xmlns="http://www.w3.org/2000/svg">
<path d="M29.2917 12.3334H30.8334V13.875H29.2917V12.3334ZM30.8334 7.70836H29.2917V10.7917H30.8334V9.25003H31.6042C32.0359 9.25003 32.375 8.91086 32.375 8.47919V5.39586C32.375 4.96419 32.0359 4.62503 31.6042 4.62503H27.75V6.16669H30.8334V7.70836ZM26.2084 4.62503H24.6667V10.7917H26.2084V4.62503ZM20.8125 23.8959C20.8125 24.7136 21.1374 25.4979 21.7156 26.0761C22.2938 26.6543 23.0781 26.9792 23.8959 26.9792C24.7136 26.9792 25.4979 26.6543 26.0761 26.0761C26.6543 25.4979 26.9792 24.7136 26.9792 23.8959C26.9792 22.1846 25.6071 20.8125 23.8959 20.8125C22.1846 20.8125 20.8125 22.2 20.8125 23.8959ZM26.2084 12.3334H24.6667V13.875H26.2084V12.3334ZM33.9167 21.5834H32.375C32.375 19.2709 31.6504 17.1588 30.4325 15.4167H26.1621C28.0429 16.8196 29.2917 19.055 29.2917 21.5834V24.6667H32.375V26.2084H29.2917V30.8334H7.70835V26.2084H4.62502V24.6667H7.70835V21.5834C7.70835 17.3284 11.1617 13.875 15.4167 13.875H21.5834C22.1075 13.875 22.6317 13.9367 23.125 14.0292V10.915C22.6163 10.8379 22.1075 10.7917 21.5834 10.7917H20.0417V8.83378C20.5105 8.56309 20.8998 8.17373 21.1705 7.70486C21.4411 7.23598 21.5835 6.70411 21.5834 6.16274C21.5832 5.62137 21.4405 5.08958 21.1697 4.62084C20.8988 4.1521 20.5093 3.76294 20.0403 3.4925C19.5713 3.22205 19.0394 3.07985 18.498 3.0802C17.9567 3.08055 17.4249 3.22343 16.9563 3.49447C16.4877 3.76552 16.0987 4.15518 15.8284 4.62426C15.5581 5.09335 15.4161 5.62532 15.4167 6.16669C15.4167 7.30753 16.0334 8.30961 16.9584 8.83378V10.7917H15.4167C9.45044 10.7917 4.62502 15.6171 4.62502 21.5834H3.08335C2.23544 21.5834 1.54169 22.2771 1.54169 23.125V27.75C1.54169 28.5979 2.23544 29.2917 3.08335 29.2917H4.62502V30.8334C4.62502 31.6511 4.94987 32.4354 5.52811 33.0136C6.10635 33.5918 6.8906 33.9167 7.70835 33.9167H29.2917C31.0029 33.9167 32.375 32.5446 32.375 30.8334V29.2917H33.9167C34.7646 29.2917 35.4584 28.5979 35.4584 27.75V23.125C35.4584 22.2771 34.7646 21.5834 33.9167 21.5834ZM13.1042 20.8125C11.4084 20.8125 10.0209 22.2 10.0209 23.8959C10.0209 25.5917 11.4084 26.9792 13.1042 26.9792C14.8 26.9792 16.1875 25.6071 16.1875 23.8959C16.1875 22.1846 14.8154 20.8125 13.1042 20.8125Z" fill="#F99B2A"/>
</svg>
