<svg width="30" height="30" viewBox="0 0 30 30" fill="none" xmlns="http://www.w3.org/2000/svg">
<g clip-path="url(#clip0_42_2)">
<path d="M30 0V0.9375C30 2.71484 29.8438 4.375 29.5312 5.91797C29.2188 7.46094 28.7354 8.9209 28.0811 10.2979C27.4268 11.6748 26.6162 12.9834 25.6494 14.2236C24.6826 15.4639 23.54 16.6797 22.2217 17.8711L19.4238 26.25H15V22.9248C13.6523 23.7158 12.29 24.4775 10.9131 25.21L4.79004 19.0869C5.52246 17.71 6.28418 16.3477 7.0752 15H3.75V10.5762L12.1289 7.79297C13.3105 6.47461 14.5215 5.32715 15.7617 4.35059C17.002 3.37402 18.3154 2.56348 19.7021 1.91895C21.0889 1.27441 22.5488 0.795898 24.082 0.483398C25.6152 0.170898 27.2754 0.00976562 29.0625 0H30ZM8.17383 13.125C8.45703 12.6758 8.74023 12.2314 9.02344 11.792C9.30664 11.3525 9.60938 10.918 9.93164 10.4883L5.625 11.9238V13.125H8.17383ZM11.2646 22.8809C11.7627 22.5977 12.2607 22.3193 12.7588 22.0459C13.2568 21.7725 13.7549 21.4893 14.2529 21.1963L8.80371 15.7471C8.52051 16.2451 8.24219 16.7432 7.96875 17.2412C7.69531 17.7393 7.41211 18.2422 7.11914 18.75L11.2646 22.8809ZM19.5117 20.0684C19.082 20.3809 18.6475 20.6787 18.208 20.9619C17.7686 21.2451 17.3242 21.5332 16.875 21.8262V24.375H18.0762L19.5117 20.0684ZM22.1924 15.2783C23.1592 14.3115 23.999 13.3301 24.7119 12.334C25.4248 11.3379 26.0303 10.293 26.5283 9.19922C27.0264 8.10547 27.3975 6.95801 27.6416 5.75684C27.8857 4.55566 28.042 3.2666 28.1104 1.88965C26.7432 1.93848 25.459 2.08984 24.2578 2.34375C23.0566 2.59766 21.9092 2.97363 20.8154 3.47168C19.7217 3.96973 18.6719 4.57031 17.666 5.27344C16.6602 5.97656 15.6689 6.81641 14.6924 7.79297C13.7256 8.74023 12.8418 9.73633 12.041 10.7812C11.2402 11.8262 10.4883 12.9297 9.78516 14.0918L15.9082 20.2148C17.0605 19.5117 18.1592 18.7598 19.2041 17.959C20.249 17.1582 21.2451 16.2646 22.1924 15.2783ZM18.75 15C18.2324 15 17.749 14.9023 17.2998 14.707C16.8506 14.5117 16.4502 14.2432 16.0986 13.9014C15.7471 13.5596 15.4785 13.1641 15.293 12.7148C15.1074 12.2656 15.0098 11.7773 15 11.25C15 10.7324 15.0977 10.249 15.293 9.7998C15.4883 9.35059 15.7568 8.9502 16.0986 8.59863C16.4404 8.24707 16.8359 7.97852 17.2852 7.79297C17.7344 7.60742 18.2227 7.50977 18.75 7.5C19.2676 7.5 19.751 7.59766 20.2002 7.79297C20.6494 7.98828 21.0498 8.25684 21.4014 8.59863C21.7529 8.94043 22.0215 9.33594 22.207 9.78516C22.3926 10.2344 22.4902 10.7227 22.5 11.25C22.5 11.7676 22.4023 12.251 22.207 12.7002C22.0117 13.1494 21.7432 13.5498 21.4014 13.9014C21.0596 14.2529 20.6641 14.5215 20.2148 14.707C19.7656 14.8926 19.2773 14.9902 18.75 15ZM18.75 9.375C18.4863 9.375 18.2422 9.42383 18.0176 9.52148C17.793 9.61914 17.5977 9.75098 17.4316 9.91699C17.2656 10.083 17.1289 10.2832 17.0215 10.5176C16.9141 10.752 16.8652 10.9961 16.875 11.25C16.875 11.5137 16.9238 11.7578 17.0215 11.9824C17.1191 12.207 17.251 12.4023 17.417 12.5684C17.583 12.7344 17.7832 12.8711 18.0176 12.9785C18.252 13.0859 18.4961 13.1348 18.75 13.125C19.0137 13.125 19.2578 13.0762 19.4824 12.9785C19.707 12.8809 19.9023 12.749 20.0684 12.583C20.2344 12.417 20.3711 12.2168 20.4785 11.9824C20.5859 11.748 20.6348 11.5039 20.625 11.25C20.625 10.9863 20.5762 10.7422 20.4785 10.5176C20.3809 10.293 20.249 10.0977 20.083 9.93164C19.917 9.76562 19.7168 9.62891 19.4824 9.52148C19.248 9.41406 19.0039 9.36523 18.75 9.375ZM3.75 22.5C4.26758 22.5 4.75098 22.5977 5.2002 22.793C5.64941 22.9883 6.0498 23.2568 6.40137 23.5986C6.75293 23.9404 7.02148 24.3359 7.20703 24.7852C7.39258 25.2344 7.49023 25.7227 7.5 26.25C7.5 26.7676 7.40234 27.251 7.20703 27.7002C7.01172 28.1494 6.74316 28.5498 6.40137 28.9014C6.05957 29.2529 5.66406 29.5215 5.21484 29.707C4.76562 29.8926 4.27734 29.9902 3.75 30H0V26.25C0 25.7324 0.0976563 25.249 0.292969 24.7998C0.488281 24.3506 0.756836 23.9502 1.09863 23.5986C1.44043 23.2471 1.83594 22.9785 2.28516 22.793C2.73438 22.6074 3.22266 22.5098 3.75 22.5ZM3.75 28.125C4.01367 28.125 4.25781 28.0762 4.48242 27.9785C4.70703 27.8809 4.90234 27.749 5.06836 27.583C5.23438 27.417 5.37109 27.2168 5.47852 26.9824C5.58594 26.748 5.63477 26.5039 5.625 26.25C5.625 25.9863 5.57617 25.7422 5.47852 25.5176C5.38086 25.293 5.24902 25.0977 5.08301 24.9316C4.91699 24.7656 4.7168 24.6289 4.48242 24.5215C4.24805 24.4141 4.00391 24.3652 3.75 24.375C3.48633 24.375 3.24219 24.4238 3.01758 24.5215C2.79297 24.6191 2.59766 24.751 2.43164 24.917C2.26562 25.083 2.12891 25.2832 2.02148 25.5176C1.91406 25.752 1.86523 25.9961 1.875 26.25V28.125H3.75Z" fill="#F99B2A"/>
</g>
<defs>
<clipPath id="clip0_42_2">
<rect width="30" height="30" fill="white"/>
</clipPath>
</defs>
</svg>
